<?xml version="1.0" encoding="utf-8"?>
<!-- Generator: Adobe Illustrator 24.2.3, SVG Export Plug-In . SVG Version: 6.00 Build 0)  -->
<svg version="1.1" id="Layer_1" xmlns="http://www.w3.org/2000/svg" xmlns:xlink="http://www.w3.org/1999/xlink" x="0px" y="0px"
	 viewBox="0 0 500 500" style="enable-background:new 0 0 500 500;" xml:space="preserve">
<style type="text/css">
	.st0{fill:#FAE481;stroke:#F1C92B;stroke-width:17.3747;stroke-miterlimit:10;}
	.st1{fill:#FFFFFF;stroke:#07A3D9;stroke-width:13.8998;stroke-miterlimit:10;}
</style>
<g>
	<path class="st0" d="M100.02,96.27c53.39-53.39,219.92-116.33,308.76,13.94c23.11-23.11,36.65-36.25,52.99-25.1
		c12.75,6.37,34.26,138.64,19.92,170.52c-9.25,20.56-160.95-4.78-184.06-31.87c-7.17-12.75,1.79-14.14,25.1-37.45
		C267.88,104.85,160.58,80.34,100.02,96.27z"/>
	<path class="st1" d="M399.98,403.73c-53.39,53.39-219.92,116.33-308.76-13.94c-23.11,23.11-36.65,36.25-52.99,25.1
		c-12.75-6.37-34.26-138.64-19.92-170.52c9.25-20.56,160.95,4.78,184.06,31.87c7.17,12.75-1.79,14.14-25.1,37.45
		C232.12,395.15,339.42,419.66,399.98,403.73z"/>
</g>
</svg>
